{
  "accessors": [
    {
      "bufferView": 2,
      "componentType": 5126,
      "count": 96,
      "max": [
        4.072000026702881,
        14.960000038146973,
        35.42499923706055
      ],
      "min": [
        3.6050000190734863,
        14.493000030517578,
        18.635000228881836
      ],
      "type": "VEC3"
    },
    {
      "bufferView": 2,
      "byteOffset": 1152,
      "componentType": 5126,
      "count": 96,
      "max": [
        0.9924005270004272,
        0.9924005270004272,
        0.0
      ],
      "min": [
        -0.9924005270004272,
        -0.9924005270004272,
        0.0
      ],
      "type": "VEC3"
    },
    {
      "bufferView": 1,
      "componentType": 5126,
      "count": 96,
      "max": [
        1.0,
        1.0
      ],
      "min": [
        0.0,
        0.0
      ],
      "type": "VEC2"
    },
    {
      "bufferView": 0,
      "componentType": 5125,
      "count": 144,
      "type": "SCALAR"
    },
    {
      "bufferView": 2,
      "byteOffset": 2304,
      "componentType": 5126,
      "count": 3882,
      "max": [
        7.813000202178955,
        15.019000053405762,
        35.51300048828125
      ],
      "min": [
        1.6629999876022339,
        13.055999755859375,
        18.104000091552734
      ],
      "type": "VEC3"
    },
    {
      "bufferView": 2,
      "byteOffset": 48888,
      "componentType": 5126,
      "count": 3882,
      "max": [
        1.0,
        0.9963880181312561,
        1.0
      ],
      "min": [
        -1.0,
        -1.0,
        -1.0
      ],
      "type": "VEC3"
    },
    {
      "bufferView": 1,
      "byteOffset": 768,
      "componentType": 5126,
      "count": 3882,
      "max": [
        1.0,
        1.0
      ],
      "min": [
        0.004000000189989805,
        0.0010000000474974513
      ],
      "type": "VEC2"
    },
    {
      "bufferView": 0,
      "byteOffset": 576,
      "componentType": 5125,
      "count": 10170,
      "type": "SCALAR"
    },
    {
      "bufferView": 2,
      "byteOffset": 95472,
      "componentType": 5126,
      "count": 8022,
      "max": [
        6.673999786376953,
        16.770000457763672,
        30.253999710083008
      ],
      "min": [
        5.546000003814697,
        15.642999649047852,
        26.49799919128418
      ],
      "type": "VEC3"
    },
    {
      "bufferView": 2,
      "byteOffset": 191736,
      "componentType": 5126,
      "count": 8022,
      "max": [
        0.9967154860496521,
        0.9998641014099121,
        1.0
      ],
      "min": [
        -0.9973301291465759,
        -0.9998641014099121,
        -1.0
      ],
      "type": "VEC3"
    },
    {
      "bufferView": 1,
      "byteOffset": 31824,
      "componentType": 5126,
      "count": 8022,
      "max": [
        4.116000175476074,
        1.8029999732971191
      ],
      "min": [
        -3.0369999408721924,
        -0.6330000162124634
      ],
      "type": "VEC2"
    },
    {
      "bufferView": 0,
      "byteOffset": 41256,
      "componentType": 5125,
      "count": 10179,
      "type": "SCALAR"
    },
    {
      "bufferView": 2,
      "byteOffset": 288000,
      "componentType": 5126,
      "count": 7010,
      "max": [
        9.592000007629395,
        22.19300079345703,
        33.78099822998047
      ],
      "min": [
        -14.489999771118164,
        12.003999710083008,
        27.56599998474121
      ],
      "type": "VEC3"
    },
    {
      "bufferView": 2,
      "byteOffset": 372120,
      "componentType": 5126,
      "count": 7010,
      "max": [
        0.9997996687889099,
        0.9998001456260681,
        1.0
      ],
      "min": [
        -0.9998001456260681,
        -0.9998001456260681,
        -1.0
      ],
      "type": "VEC3"
    },
    {
      "bufferView": 1,
      "byteOffset": 96000,
      "componentType": 5126,
      "count": 7010,
      "max": [
        1.7760000228881836,
        1.2699999809265137
      ],
      "min": [
        -0.6990000009536743,
        -0.14499999582767487
      ],
      "type": "VEC2"
    },
    {
      "bufferView": 0,
      "byteOffset": 81972,
      "componentType": 5125,
      "count": 9948,
      "type": "SCALAR"
    },
    {
      "bufferView": 2,
      "byteOffset": 456240,
      "componentType": 5126,
      "count": 1540,
      "max": [
        7.054999828338623,
        14.982999801635742,
        35.404998779296875
      ],
      "min": [
        3.5820000171661377,
        13.289999961853027,
        4.572999954223633
      ],
      "type": "VEC3"
    },
    {
      "bufferView": 2,
      "byteOffset": 474720,
      "componentType": 5126,
      "count": 1540,
      "max": [
        0.9993494153022766,
        0.9951582551002502,
        0.9997190833091736
      ],
      "min": [
        -0.9993494153022766,
        -0.9920055270195007,
        -0.9981851577758789
      ],
      "type": "VEC3"
    },
    {
      "bufferView": 1,
      "byteOffset": 152080,
      "componentType": 5126,
      "count": 1540,
      "max": [
        1.9170000553131104,
        2.0910000801086426
      ],
      "min": [
        -0.5090000033378601,
        -2.746000051498413
      ],
      "type": "VEC2"
    },
    {
      "bufferView": 0,
      "byteOffset": 121764,
      "componentType": 5125,
      "count": 1884,
      "type": "SCALAR"
    },
    {
      "bufferView": 2,
      "byteOffset": 493200,
      "componentType": 5126,
      "count": 5424,
      "max": [
        7.77400016784668,
        23.055999755859375,
        39.000999450683594
      ],
      "min": [
        0.6629999876022339,
        13.562000274658203,
        2.2929999828338623
      ],
      "type": "VEC3"
    },
    {
      "bufferView": 2,
      "byteOffset": 558288,
      "componentType": 5126,
      "count": 5424,
      "max": [
        0.9997791647911072,
        0.9996336698532104,
        1.0
      ],
      "min": [
        -0.9999555349349976,
        -0.9999434947967529,
        -0.9999420642852783
      ],
      "type": "VEC3"
    },
    {
      "bufferView": 1,
      "byteOffset": 164400,
      "componentType": 5126,
      "count": 5424,
      "max": [
        2.0,
        2.000999927520752
      ],
      "min": [
        -1.0,
        -1.0010000467300415
      ],
      "type": "VEC2"
    },
    {
      "bufferView": 0,
      "byteOffset": 129300,
      "componentType": 5125,
      "count": 7026,
      "type": "SCALAR"
    },
    {
      "bufferView": 2,
      "byteOffset": 623376,
      "componentType": 5126,
      "count": 1771,
      "max": [
        5.708000183105469,
        20.124000549316406,
        34.724998474121094
      ],
      "min": [
        3.566999912261963,
        13.479999542236328,
        33.88600158691406
      ],
      "type": "VEC3"
    },
    {
      "bufferView": 2,
      "byteOffset": 644628,
      "componentType": 5126,
      "count": 1771,
      "max": [
        0.9938132166862488,
        0.9837949275970459,
        0.9960070252418518
      ],
      "min": [
        -0.9928913116455078,
        -0.9942958950996399,
        -0.9959591627120972
      ],
      "type": "VEC3"
    },
    {
      "bufferView": 1,
      "byteOffset": 207792,
      "componentType": 5126,
      "count": 1771,
      "max": [
        6.13700008392334,
        4.23199987411499
      ],
      "min": [
        -16.29199981689453,
        -0.5690000057220459
      ],
      "type": "VEC2"
    },
    {
      "bufferView": 0,
      "byteOffset": 157404,
      "componentType": 5125,
      "count": 2316,
      "type": "SCALAR"
    },
    {
      "bufferView": 2,
      "byteOffset": 665880,
      "componentType": 5126,
      "count": 461,
      "max": [
        -5.642000198364258,
        16.597999572753906,
        34.784000396728516
      ],
      "min": [
        -6.668000221252441,
        16.016000747680664,
        34.40399932861328
      ],
      "type": "VEC3"
    },
    {
      "bufferView": 2,
      "byteOffset": 671412,
      "componentType": 5126,
      "count": 461,
      "max": [
        0.9988825917243958,
        0.9984879493713379,
        1.0
      ],
      "min": [
        -0.9984879493713379,
        -0.998595654964447,
        -1.0
      ],
      "type": "VEC3"
    },
    {
      "bufferView": 1,
      "byteOffset": 221960,
      "componentType": 5126,
      "count": 461,
      "max": [
        1.6660000085830688,
        1.0140000581741333
      ],
      "min": [
        -0.16200000047683716,
        0.0
      ],
      "type": "VEC2"
    },
    {
      "bufferView": 0,
      "byteOffset": 166668,
      "componentType": 5125,
      "count": 726,
      "type": "SCALAR"
    },
    {
      "bufferView": 2,
      "byteOffset": 676944,
      "componentType": 5126,
      "count": 649,
      "max": [
        8.065999984741211,
        14.380000114440918,
        36.12699890136719
      ],
      "min": [
        6.881999969482422,
        13.006999969482422,
        33.630001068115234
      ],
      "type": "VEC3"
    },
    {
      "bufferView": 2,
      "byteOffset": 684732,
      "componentType": 5126,
      "count": 649,
      "max": [
        0.9966985583305359,
        0.9995792508125305,
        0.996340274810791
      ],
      "min": [
        -0.9920297861099243,
        -0.9997575879096985,
        -0.9994627833366394
      ],
      "type": "VEC3"
    },
    {
      "bufferView": 1,
      "byteOffset": 225648,
      "componentType": 5126,
      "count": 649,
      "max": [
        1.0,
        1.0
      ],
      "min": [
        0.0,
        0.0
      ],
      "type": "VEC2"
    },
    {
      "bufferView": 0,
      "byteOffset": 169572,
      "componentType": 5125,
      "count": 714,
      "type": "SCALAR"
    },
    {
      "bufferView": 2,
      "byteOffset": 692520,
      "componentType": 5126,
      "count": 1706,
      "max": [
        7.111999988555908,
        14.109999656677246,
        34.84299850463867
      ],
      "min": [
        6.811999797821045,
        13.527000427246094,
        34.21799850463867
      ],
      "type": "VEC3"
    },
    {
      "bufferView": 2,
      "byteOffset": 712992,
      "componentType": 5126,
      "count": 1706,
      "max": [
        0.9999134540557861,
        0.9957805275917053,
        0.9999575614929199
      ],
      "min": [
        -0.9953261017799377,
        -0.9997101426124573,
        -0.9999575614929199
      ],
      "type": "VEC3"
    },
    {
      "bufferView": 1,
      "byteOffset": 230840,
      "componentType": 5126,
      "count": 1706,
      "max": [
        1.5019999742507935,
        2.0399999618530273
      ],
      "min": [
        -2.0139999389648438,
        -2.375
      ],
      "type": "VEC2"
    },
    {
      "bufferView": 0,
      "byteOffset": 172428,
      "componentType": 5125,
      "count": 2112,
      "type": "SCALAR"
    },
    {
      "bufferView": 2,
      "byteOffset": 733464,
      "componentType": 5126,
      "count": 8395,
      "max": [
        5.38100004196167,
        19.979999542236328,
        39.064998626708984
      ],
      "min": [
        1.1080000400543213,
        12.727999687194824,
        9.027999877929688
      ],
      "type": "VEC3"
    },
    {
      "bufferView": 2,
      "byteOffset": 834204,
      "componentType": 5126,
      "count": 8395,
      "max": [
        0.9999675750732422,
        0.9993103742599487,
        1.0
      ],
      "min": [
        -0.9998875856399536,
        -0.9997791647911072,
        -1.0
      ],
      "type": "VEC3"
    },
    {
      "bufferView": 1,
      "byteOffset": 244488,
      "componentType": 5126,
      "count": 8395,
      "max": [
        5.561999797821045,
        2.0
      ],
      "min": [
        -0.6819999814033508,
        -0.9929999709129333
      ],
      "type": "VEC2"
    },
    {
      "bufferView": 0,
      "byteOffset": 180876,
      "componentType": 5125,
      "count": 11001,
      "type": "SCALAR"
    },
    {
      "bufferView": 2,
      "byteOffset": 934944,
      "componentType": 5126,
      "count": 676,
      "max": [
        6.242000102996826,
        16.299999237060547,
        26.643999099731445
      ],
      "min": [
        6.078000068664551,
        16.136999130249023,
        21.632999420166016
      ],
      "type": "VEC3"
    },
    {
      "bufferView": 2,
      "byteOffset": 943056,
      "componentType": 5126,
      "count": 676,
      "max": [
        0.9921543002128601,
        0.9978159070014954,
        1.0
      ],
      "min": [
        -0.9921543002128601,
        -0.9964619874954224,
        -1.0
      ],
      "type": "VEC3"
    },
    {
      "bufferView": 1,
      "byteOffset": 311648,
      "componentType": 5126,
      "count": 676,
      "max": [
        2.052999973297119,
        1.600000023841858
      ],
      "min": [
        -1.0529999732971191,
        -1.1069999933242798
      ],
      "type": "VEC2"
    },
    {
      "bufferView": 0,
      "byteOffset": 224880,
      "componentType": 5125,
      "count": 792,
      "type": "SCALAR"
    },
    {
      "bufferView": 2,
      "byteOffset": 951168,
      "componentType": 5126,
      "count": 1292,
      "max": [
        5.928999900817871,
        15.833000183105469,
        31.749000549316406
      ],
      "min": [
        2.242000102996826,
        12.642999649047852,
        20.034000396728516
      ],
      "type": "VEC3"
    },
    {
      "bufferView": 2,
      "byteOffset": 966672,
      "componentType": 5126,
      "count": 1292,
      "max": [
        0.9878795146942139,
        0.9878795146942139,
        1.0
      ],
      "min": [
        -0.9854674935340881,
        -0.9800980091094971,
        -1.0
      ],
      "type": "VEC3"
    },
    {
      "bufferView": 1,
      "byteOffset": 317056,
      "componentType": 5126,
      "count": 1292,
      "max": [
        1.0,
        1.0
      ],
      "min": [
        0.0,
        0.0
      ],
      "type": "VEC2"
    },
    {
      "bufferView": 0,
      "byteOffset": 228048,
      "componentType": 5125,
      "count": 1428,
      "type": "SCALAR"
    },
    {
      "bufferView": 2,
      "byteOffset": 982176,
      "componentType": 5126,
      "count": 331,
      "max": [
        43.58100128173828,
        51.26100158691406,
        31.822999954223633
      ],
      "min": [
        -31.898000717163086,
        -19.863000869750977,
        -0.2619999945163727
      ],
      "type": "VEC3"
    },
    {
      "bufferView": 2,
      "byteOffset": 986148,
      "componentType": 5126,
      "count": 331,
      "max": [
        0.9984859228134155,
        0.988513708114624,
        1.0
      ],
      "min": [
        -0.9991169571876526,
        -0.998699426651001,
        -1.0
      ],
      "type": "VEC3"
    },
    {
      "bufferView": 1,
      "byteOffset": 327392,
      "componentType": 5126,
      "count": 331,
      "max": [
        3.799999952316284,
        1.347000002861023
      ],
      "min": [
        -0.3569999933242798,
        0.0
      ],
      "type": "VEC2"
    },
    {
      "bufferView": 0,
      "byteOffset": 233760,
      "componentType": 5125,
      "count": 918,
      "type": "SCALAR"
    },
    {
      "bufferView": 2,
      "byteOffset": 990120,
      "componentType": 5126,
      "count": 2989,
      "max": [
        7.870999813079834,
        19.868999481201172,
        39.19200134277344
      ],
      "min": [
        1.562000036239624,
        12.755000114440918,
        18.215999603271484
      ],
      "type": "VEC3"
    },
    {
      "bufferView": 0,
      "byteOffset": 237432,
      "componentType": 5125,
      "count": 4520,
      "type": "SCALAR"
    },
    {
      "bufferView": 2,
      "byteOffset": 1025988,
      "componentType": 5126,
      "count": 53753,
      "max": [
        8.286999702453613,
        15.232999801635742,
        35.57099914550781
      ],
      "min": [
        1.6430000066757202,
        12.961000442504883,
        18.06100082397461
      ],
      "type": "VEC3"
    },
    {
      "bufferView": 0,
      "byteOffset": 255512,
      "componentType": 5125,
      "count": 59518,
      "type": "SCALAR"
    },
    {
      "bufferView": 2,
      "byteOffset": 1671024,
      "componentType": 5126,
      "count": 9771,
      "max": [
        8.286999702453613,
        15.232999801635742,
        35.573001861572266
      ],
      "min": [
        1.6979999542236328,
        13.081000328063965,
        17.80500030517578
      ],
      "type": "VEC3"
    },
    {
      "bufferView": 2,
      "byteOffset": 1788276,
      "componentType": 5126,
      "count": 9771,
      "max": [
        0.9999455213546753,
        0.9999455213546753,
        1.0
      ],
      "min": [
        -0.9999455213546753,
        -0.9999455213546753,
        -1.0
      ],
      "type": "VEC3"
    },
    {
      "bufferView": 1,
      "byteOffset": 330040,
      "componentType": 5126,
      "count": 9771,
      "max": [
        2.624000072479248,
        7.438000202178955
      ],
      "min": [
        -3.546999931335449,
        -0.972000002861023
      ],
      "type": "VEC2"
    },
    {
      "bufferView": 0,
      "byteOffset": 493584,
      "componentType": 5125,
      "count": 13320,
      "type": "SCALAR"
    },
    {
      "bufferView": 2,
      "byteOffset": 1905528,
      "componentType": 5126,
      "count": 65532,
      "max": [
        16.447999954223633,
        27.034000396728516,
        43.119998931884766
      ],
      "min": [
        -13.618000030517578,
        4.84499979019165,
        1.8450000286102295
      ],
      "type": "VEC3"
    },
    {
      "bufferView": 2,
      "byteOffset": 2691912,
      "componentType": 5126,
      "count": 65532,
      "max": [
        0.9997120499610901,
        1.0,
        1.0
      ],
      "min": [
        -0.9997535347938538,
        -0.9999979734420776,
        -1.0
      ],
      "type": "VEC3"
    },
    {
      "bufferView": 1,
      "byteOffset": 408208,
      "componentType": 5126,
      "count": 65532,
      "max": [
        7.386000156402588,
        50.08000183105469
      ],
      "min": [
        -14.770999908447266,
        -78.21499633789063
      ],
      "type": "VEC2"
    },
    {
      "bufferView": 0,
      "byteOffset": 546864,
      "componentType": 5125,
      "count": 145266,
      "type": "SCALAR"
    },
    {
      "bufferView": 2,
      "byteOffset": 3478296,
      "componentType": 5126,
      "count": 65534,
      "max": [
        16.274999618530273,
        26.773000717163086,
        39.29600143432617
      ],
      "min": [
        -13.618000030517578,
        5.573999881744385,
        1.8450000286102295
      ],
      "type": "VEC3"
    },
    {
      "bufferView": 2,
      "byteOffset": 4264704,
      "componentType": 5126,
      "count": 65534,
      "max": [
        0.9999874830245972,
        0.999987006187439,
        1.0
      ],
      "min": [
        -0.9999819993972778,
        -1.0,
        -1.0
      ],
      "type": "VEC3"
    },
    {
      "bufferView": 1,
      "byteOffset": 932464,
      "componentType": 5126,
      "count": 65534,
      "max": [
        3.3889999389648438,
        2.2300000190734863
      ],
      "min": [
        -1.6449999809265137,
        -1.315000057220459
      ],
      "type": "VEC2"
    },
    {
      "bufferView": 0,
      "byteOffset": 1127928,
      "componentType": 5125,
      "count": 85014,
      "type": "SCALAR"
    },
    {
      "bufferView": 2,
      "byteOffset": 5051112,
      "componentType": 5126,
      "count": 65532,
      "max": [
        8.725000381469727,
        15.442000389099121,
        37.176998138427734
      ],
      "min": [
        1.6119999885559082,
        9.366000175476074,
        19.979000091552734
      ],
      "type": "VEC3"
    },
    {
      "bufferView": 2,
      "byteOffset": 5837496,
      "componentType": 5126,
      "count": 65532,
      "max": [
        0.9999915361404419,
        0.9999270439147949,
        1.0
      ],
      "min": [
        -0.9999915361404419,
        -0.999987006187439,
        -1.0
      ],
      "type": "VEC3"
    },
    {
      "bufferView": 1,
      "byteOffset": 1456736,
      "componentType": 5126,
      "count": 65532,
      "max": [
        1.2740000486373901,
        1.7400000095367432
      ],
      "min": [
        -0.5370000004768372,
        -0.15299999713897705
      ],
      "type": "VEC2"
    },
    {
      "bufferView": 0,
      "byteOffset": 1467984,
      "componentType": 5125,
      "count": 71136,
      "type": "SCALAR"
    },
    {
      "bufferView": 2,
      "byteOffset": 6623880,
      "componentType": 5126,
      "count": 65533,
      "max": [
        8.140999794006348,
        21.256000518798828,
        35.790000915527344
      ],
      "min": [
        -12.906999588012695,
        12.022000312805176,
        31.541000366210938
      ],
      "type": "VEC3"
    },
    {
      "bufferView": 2,
      "byteOffset": 7410276,
      "componentType": 5126,
      "count": 65533,
      "max": [
        0.9999995231628418,
        0.9999275207519531,
        1.0
      ],
      "min": [
        -0.9999995231628418,
        -0.9998559951782227,
        -1.0
      ],
      "type": "VEC3"
    },
    {
      "bufferView": 1,
      "byteOffset": 1980992,
      "componentType": 5126,
      "count": 65533,
      "max": [
        1.0,
        1.0
      ],
      "min": [
        0.0,
        0.0
      ],
      "type": "VEC2"
    },
    {
      "bufferView": 0,
      "byteOffset": 1752528,
      "componentType": 5125,
      "count": 72198,
      "type": "SCALAR"
    },
    {
      "bufferView": 2,
      "byteOffset": 8196672,
      "componentType": 5126,
      "count": 65532,
      "max": [
        9.444000244140625,
        23.257999420166016,
        39.29600143432617
      ],
      "min": [
        4.048999786376953,
        12.685999870300293,
        31.516000747680664
      ],
      "type": "VEC3"
    },
    {
      "bufferView": 2,
      "byteOffset": 8983056,
      "componentType": 5126,
      "count": 65532,
      "max": [
        0.9999735355377197,
        0.9999500513076782,
        1.0
      ],
      "min": [
        -0.9999735355377197,
        -0.9999500513076782,
        -1.0
      ],
      "type": "VEC3"
    },
    {
      "bufferView": 1,
      "byteOffset": 2505256,
      "componentType": 5126,
      "count": 65532,
      "max": [
        1.0,
        1.0
      ],
      "min": [
        -0.7480000257492065,
        0.0
      ],
      "type": "VEC2"
    },
    {
      "bufferView": 0,
      "byteOffset": 2041320,
      "componentType": 5125,
      "count": 72678,
      "type": "SCALAR"
    },
    {
      "bufferView": 2,
      "byteOffset": 9769440,
      "componentType": 5126,
      "count": 65532,
      "max": [
        7.238999843597412,
        14.817000389099121,
        35.19300079345703
      ],
      "min": [
        1.4910000562667847,
        13.02400016784668,
        30.575000762939453
      ],
      "type": "VEC3"
    },
    {
      "bufferView": 2,
      "byteOffset": 10555824,
      "componentType": 5126,
      "count": 65532,
      "max": [
        0.9999935626983643,
        0.9999639987945557,
        1.0
      ],
      "min": [
        -0.9999675750732422,
        -0.9999675750732422,
        -1.0
      ],
      "type": "VEC3"
    },
    {
      "bufferView": 1,
      "byteOffset": 3029512,
      "componentType": 5126,
      "count": 65532,
      "max": [
        2.072000026702881,
        1.0
      ],
      "min": [
        0.0,
        -0.5379999876022339
      ],
      "type": "VEC2"
    },
    {
      "bufferView": 0,
      "byteOffset": 2332032,
      "componentType": 5125,
      "count": 76815,
      "type": "SCALAR"
    },
    {
      "bufferView": 2,
      "byteOffset": 11342208,
      "componentType": 5126,
      "count": 65532,
      "max": [
        6.289000034332275,
        16.347000122070313,
        31.89299964904785
      ],
      "min": [
        1.409000039100647,
        12.906000137329102,
        10.465999603271484
      ],
      "type": "VEC3"
    },
    {
      "bufferView": 2,
      "byteOffset": 12128592,
      "componentType": 5126,
      "count": 65532,
      "max": [
        0.9999979734420776,
        0.9999819993972778,
        1.0
      ],
      "min": [
        -0.9999874830245972,
        -0.9999755620956421,
        -1.0
      ],
      "type": "VEC3"
    },
    {
      "bufferView": 1,
      "byteOffset": 3553768,
      "componentType": 5126,
      "count": 65532,
      "max": [
        1.0,
        1.0
      ],
      "min": [
        0.0,
        -0.0010000000474974513
      ],
      "type": "VEC2"
    },
    {
      "bufferView": 0,
      "byteOffset": 2639292,
      "componentType": 5125,
      "count": 76044,
      "type": "SCALAR"
    },
    {
      "bufferView": 2,
      "byteOffset": 12914976,
      "componentType": 5126,
      "count": 34375,
      "max": [
        5.663000106811523,
        15.440999984741211,
        20.948999404907227
      ],
      "min": [
        4.348999977111816,
        13.526000022888184,
        17.941999435424805
      ],
      "type": "VEC3"
    },
    {
      "bufferView": 2,
      "byteOffset": 13327476,
      "componentType": 5126,
      "count": 34375,
      "max": [
        0.9999915361404419,
        0.9999279975891113,
        1.0
      ],
      "min": [
        -0.9999915361404419,
        -0.9998750686645508,
        -1.0
      ],
      "type": "VEC3"
    },
    {
      "bufferView": 1,
      "byteOffset": 4078024,
      "componentType": 5126,
      "count": 34375,
      "max": [
        1.0010000467300415,
        1.0
      ],
      "min": [
        -0.0010000000474974513,
        0.0
      ],
      "type": "VEC2"
    },
    {
      "bufferView": 0,
      "byteOffset": 2943468,
      "componentType": 5125,
      "count": 39603,
      "type": "SCALAR"
    }
  ],
  "asset": {
    "extras": {
      "author": "NEONscience (https://sketchfab.com/NEONscience)",
      "license": "CC-BY-4.0 (http://creativecommons.org/licenses/by/4.0/)",
      "source": "https://sketchfab.com/3d-models/neons-micrometeorological-station-fc57a36162f2412fab6f016ec2b23cb8",
      "title": "NEON's Micrometeorological Station"
    },
    "generator": "Sketchfab-16.15.0",
    "version": "2.0"
  },
  "bufferViews": [
    {
      "buffer": 0,
      "byteLength": 3101880,
      "name": "floatBufferViews",
      "target": 34963
    },
    {
      "buffer": 0,
      "byteLength": 4353024,
      "byteOffset": 3101880,
      "byteStride": 8,
      "name": "floatBufferViews",
      "target": 34962
    },
    {
      "buffer": 0,
      "byteLength": 13739976,
      "byteOffset": 7454904,
      "byteStride": 12,
      "name": "floatBufferViews",
      "target": 34962
    }
  ],
  "buffers": [
    {
      "byteLength": 21194880,
      "uri": "scene.bin"
    }
  ],
  "extensionsUsed": [
    "KHR_materials_specular"
  ],
  "materials": [
    {
      "doubleSided": true,
      "name": "01___Default",
      "pbrMetallicRoughness": {
        "baseColorFactor": [
          0.09760766351008722,
          0.06619110830510669,
          0.041254318046291455,
          1.0
        ],
        "metallicFactor": 0.0,
        "roughnessFactor": 0.6
      }
    },
    {
      "doubleSided": true,
      "name": "02___Default",
      "pbrMetallicRoughness": {
        "metallicFactor": 0.5975670187086929,
        "roughnessFactor": 0.6
      }
    },
    {
      "doubleSided": true,
      "name": "03___Default",
      "pbrMetallicRoughness": {
        "baseColorFactor": [
          0.2953043464009595,
          0.29244824069314135,
          0.29244824069314135,
          1.0
        ],
        "metallicFactor": 0.46988338227872734,
        "roughnessFactor": 0.6
      }
    },
    {
      "doubleSided": true,
      "name": "wire_003003003",
      "pbrMetallicRoughness": {
        "metallicFactor": 0.0,
        "roughnessFactor": 0.6
      }
    },
    {
      "doubleSided": true,
      "name": "wire_086086086",
      "pbrMetallicRoughness": {
        "baseColorFactor": [
          0.12554694619288637,
          0.11978485744284464,
          0.11978485744284464,
          1.0
        ],
        "metallicFactor": 0.37868078482875195,
        "roughnessFactor": 0.6
      }
    },
    {
      "doubleSided": true,
      "name": "wire_097102086",
      "pbrMetallicRoughness": {
        "baseColorFactor": [
          0.22653400390734113,
          0.2243672395266128,
          0.2243672395266128,
          1.0
        ],
        "metallicFactor": 0.0,
        "roughnessFactor": 0.6
      }
    },
    {
      "doubleSided": true,
      "name": "wire_115115115",
      "pbrMetallicRoughness": {
        "baseColorFactor": [
          0.3052835848314484,
          0.3023271206315289,
          0.3023271206315289,
          1.0
        ],
        "metallicFactor": 0.5914868455453611,
        "roughnessFactor": 0.6
      }
    },
    {
      "doubleSided": true,
      "extensions": {
        "KHR_materials_specular": {
          "specularColorFactor": [
            1.0,
            1.0,
            1.0
          ],
          "specularFactor": 0.6644489235053415
        }
      },
      "name": "wire_131137116",
      "pbrMetallicRoughness": {
        "baseColorFactor": [
          0.3417455923947124,
          0.3285641189566449,
          0.3285641189566449,
          1.0
        ],
        "metallicFactor": 0.6948497893219999,
        "roughnessFactor": 0.5361967908846044
      }
    },
    {
      "doubleSided": true,
      "name": "wire_164172146",
      "pbrMetallicRoughness": {
        "baseColorFactor": [
          0.31545681939380177,
          0.31239797210551395,
          0.31239797210551395,
          1.0
        ],
        "metallicFactor": 0.0,
        "roughnessFactor": 0.6
      }
    },
    {
      "doubleSided": true,
      "extensions": {
        "KHR_materials_specular": {
          "specularColorFactor": [
            1.0,
            1.0,
            1.0
          ],
          "specularFactor": 0.6462084040153464
        }
      },
      "name": "wire_177148027",
      "pbrMetallicRoughness": {
        "baseColorFactor": [
          0.5434799553520722,
          0.5612388103215987,
          0.180997098136802,
          1.0
        ],
        "metallicFactor": 0.73133082830199,
        "roughnessFactor": 0.6
      }
    },
    {
      "doubleSided": true,
      "name": "wire_190190190",
      "pbrMetallicRoughness": {
        "baseColorFactor": [
          0.4987199530935721,
          0.4938069482740788,
          0.4938069482740788,
          1.0
        ],
        "metallicFactor": 0.42124199697207376,
        "roughnessFactor": 0.6
      }
    },
    {
      "doubleSided": true,
      "name": "wire_223234198",
      "pbrMetallicRoughness": {
        "metallicFactor": 0.0,
        "roughnessFactor": 0.6
      }
    },
    {
      "doubleSided": true,
      "name": "wire_225198087",
      "pbrMetallicRoughness": {
        "baseColorFactor": [
          0.7494345424331753,
          0.7220237394246982,
          0.49563860664919657,
          1.0
        ],
        "metallicFactor": 0.0,
        "roughnessFactor": 0.6
      }
    },
    {
      "doubleSided": true,
      "name": "wire_255255255",
      "pbrMetallicRoughness": {
        "metallicFactor": 0.0,
        "roughnessFactor": 0.6
      }
    }
  ],
  "meshes": [
    {
      "name": "Object_0",
      "primitives": [
        {
          "attributes": {
            "NORMAL": 1,
            "POSITION": 0,
            "TEXCOORD_0": 2
          },
          "indices": 3,
          "material": 2,
          "mode": 4
        }
      ]
    },
    {
      "name": "Object_1",
      "primitives": [
        {
          "attributes": {
            "NORMAL": 5,
            "POSITION": 4,
            "TEXCOORD_0": 6
          },
          "indices": 7,
          "material": 7,
          "mode": 4
        }
      ]
    },
    {
      "name": "Object_2",
      "primitives": [
        {
          "attributes": {
            "NORMAL": 9,
            "POSITION": 8,
            "TEXCOORD_0": 10
          },
          "indices": 11,
          "material": 4,
          "mode": 4
        }
      ]
    },
    {
      "name": "Object_3",
      "primitives": [
        {
          "attributes": {
            "NORMAL": 13,
            "POSITION": 12,
            "TEXCOORD_0": 14
          },
          "indices": 15,
          "material": 1,
          "mode": 4
        }
      ]
    },
    {
      "name": "Object_4",
      "primitives": [
        {
          "attributes": {
            "NORMAL": 17,
            "POSITION": 16,
            "TEXCOORD_0": 18
          },
          "indices": 19,
          "material": 6,
          "mode": 4
        }
      ]
    },
    {
      "name": "Object_5",
      "primitives": [
        {
          "attributes": {
            "NORMAL": 21,
            "POSITION": 20,
            "TEXCOORD_0": 22
          },
          "indices": 23,
          "material": 3,
          "mode": 4
        }
      ]
    },
    {
      "name": "Object_6",
      "primitives": [
        {
          "attributes": {
            "NORMAL": 25,
            "POSITION": 24,
            "TEXCOORD_0": 26
          },
          "indices": 27,
          "material": 5,
          "mode": 4
        }
      ]
    },
    {
      "name": "Object_7",
      "primitives": [
        {
          "attributes": {
            "NORMAL": 29,
            "POSITION": 28,
            "TEXCOORD_0": 30
          },
          "indices": 31,
          "material": 9,
          "mode": 4
        }
      ]
    },
    {
      "name": "Object_8",
      "primitives": [
        {
          "attributes": {
            "NORMAL": 33,
            "POSITION": 32,
            "TEXCOORD_0": 34
          },
          "indices": 35,
          "material": 10,
          "mode": 4
        }
      ]
    },
    {
      "name": "Object_9",
      "primitives": [
        {
          "attributes": {
            "NORMAL": 37,
            "POSITION": 36,
            "TEXCOORD_0": 38
          },
          "indices": 39,
          "material": 12,
          "mode": 4
        }
      ]
    },
    {
      "name": "Object_10",
      "primitives": [
        {
          "attributes": {
            "NORMAL": 41,
            "POSITION": 40,
            "TEXCOORD_0": 42
          },
          "indices": 43,
          "material": 13,
          "mode": 4
        }
      ]
    },
    {
      "name": "Object_11",
      "primitives": [
        {
          "attributes": {
            "NORMAL": 45,
            "POSITION": 44,
            "TEXCOORD_0": 46
          },
          "indices": 47,
          "material": 11,
          "mode": 4
        }
      ]
    },
    {
      "name": "Object_12",
      "primitives": [
        {
          "attributes": {
            "NORMAL": 49,
            "POSITION": 48,
            "TEXCOORD_0": 50
          },
          "indices": 51,
          "material": 8,
          "mode": 4
        }
      ]
    },
    {
      "name": "Object_13",
      "primitives": [
        {
          "attributes": {
            "NORMAL": 53,
            "POSITION": 52,
            "TEXCOORD_0": 54
          },
          "indices": 55,
          "material": 0,
          "mode": 4
        }
      ]
    },
    {
      "name": "Object_14",
      "primitives": [
        {
          "attributes": {
            "POSITION": 56
          },
          "indices": 57,
          "material": 7,
          "mode": 1
        }
      ]
    },
    {
      "name": "Object_15",
      "primitives": [
        {
          "attributes": {
            "POSITION": 58
          },
          "indices": 59,
          "material": 7,
          "mode": 1
        }
      ]
    },
    {
      "name": "Object_16",
      "primitives": [
        {
          "attributes": {
            "NORMAL": 61,
            "POSITION": 60,
            "TEXCOORD_0": 62
          },
          "indices": 63,
          "material": 7,
          "mode": 4
        }
      ]
    },
    {
      "name": "Object_17",
      "primitives": [
        {
          "attributes": {
            "NORMAL": 65,
            "POSITION": 64,
            "TEXCOORD_0": 66
          },
          "indices": 67,
          "material": 7,
          "mode": 4
        }
      ]
    },
    {
      "name": "Object_18",
      "primitives": [
        {
          "attributes": {
            "NORMAL": 69,
            "POSITION": 68,
            "TEXCOORD_0": 70
          },
          "indices": 71,
          "material": 7,
          "mode": 4
        }
      ]
    },
    {
      "name": "Object_19",
      "primitives": [
        {
          "attributes": {
            "NORMAL": 73,
            "POSITION": 72,
            "TEXCOORD_0": 74
          },
          "indices": 75,
          "material": 7,
          "mode": 4
        }
      ]
    },
    {
      "name": "Object_20",
      "primitives": [
        {
          "attributes": {
            "NORMAL": 77,
            "POSITION": 76,
            "TEXCOORD_0": 78
          },
          "indices": 79,
          "material": 7,
          "mode": 4
        }
      ]
    },
    {
      "name": "Object_21",
      "primitives": [
        {
          "attributes": {
            "NORMAL": 81,
            "POSITION": 80,
            "TEXCOORD_0": 82
          },
          "indices": 83,
          "material": 7,
          "mode": 4
        }
      ]
    },
    {
      "name": "Object_22",
      "primitives": [
        {
          "attributes": {
            "NORMAL": 85,
            "POSITION": 84,
            "TEXCOORD_0": 86
          },
          "indices": 87,
          "material": 7,
          "mode": 4
        }
      ]
    },
    {
      "name": "Object_23",
      "primitives": [
        {
          "attributes": {
            "NORMAL": 89,
            "POSITION": 88,
            "TEXCOORD_0": 90
          },
          "indices": 91,
          "material": 7,
          "mode": 4
        }
      ]
    },
    {
      "name": "Object_24",
      "primitives": [
        {
          "attributes": {
            "NORMAL": 93,
            "POSITION": 92,
            "TEXCOORD_0": 94
          },
          "indices": 95,
          "material": 7,
          "mode": 4
        }
      ]
    }
  ],
  "nodes": [
    {
      "children": [
        1
      ],
      "matrix": [
        4.440892098500626e-16,
        -2.220446049250313e-16,
        1.0,
        0.0,
        1.0,
        -6.12323426292583e-17,
        -4.440892098500626e-16,
        0.0,
        6.123234262925839e-17,
        1.0,
        2.220446049250313e-16,
        0.0,
        0.0,
        0.0,
        0.0,
        1.0
      ],
      "name": "Sketchfab_model"
    },
    {
      "children": [
        2,
        3,
        4,
        5,
        6,
        7,
        8,
        9,
        10,
        11,
        12,
        13,
        14,
        15,
        16,
        17,
        18,
        19,
        20,
        21,
        22,
        23,
        24,
        25,
        26
      ],
      "name": "met2021_color.obj.cleaner.materialmerger.gles"
    },
    {
      "mesh": 0,
      "name": "Object_2"
    },
    {
      "mesh": 1,
      "name": "Object_3"
    },
    {
      "mesh": 2,
      "name": "Object_4"
    },
    {
      "mesh": 3,
      "name": "Object_5"
    },
    {
      "mesh": 4,
      "name": "Object_6"
    },
    {
      "mesh": 5,
      "name": "Object_7"
    },
    {
      "mesh": 6,
      "name": "Object_8"
    },
    {
      "mesh": 7,
      "name": "Object_9"
    },
    {
      "mesh": 8,
      "name": "Object_10"
    },
    {
      "mesh": 9,
      "name": "Object_11"
    },
    {
      "mesh": 10,
      "name": "Object_12"
    },
    {
      "mesh": 11,
      "name": "Object_13"
    },
    {
      "mesh": 12,
      "name": "Object_14"
    },
    {
      "mesh": 13,
      "name": "Object_15"
    },
    {
      "mesh": 14,
      "name": "Object_16"
    },
    {
      "mesh": 15,
      "name": "Object_17"
    },
    {
      "mesh": 16,
      "name": "Object_18"
    },
    {
      "mesh": 17,
      "name": "Object_19"
    },
    {
      "mesh": 18,
      "name": "Object_20"
    },
    {
      "mesh": 19,
      "name": "Object_21"
    },
    {
      "mesh": 20,
      "name": "Object_22"
    },
    {
      "mesh": 21,
      "name": "Object_23"
    },
    {
      "mesh": 22,
      "name": "Object_24"
    },
    {
      "mesh": 23,
      "name": "Object_25"
    },
    {
      "mesh": 24,
      "name": "Object_26"
    }
  ],
  "scene": 0,
  "scenes": [
    {
      "name": "Sketchfab_Scene",
      "nodes": [
        0
      ]
    }
  ]
}
