{
  "accessors": [
    {
      "bufferView": 2,
      "componentType": 5126,
      "count": 1881,
      "max": [
        -111.22822570800781,
        28.551223754882813,
        6.60400390625
      ],
      "min": [
        -111.91090393066406,
        -3.5765953063964844,
        5.9212646484375
      ],
      "type": "VEC3"
    },
    {
      "bufferView": 2,
      "byteOffset": 22572,
      "componentType": 5126,
      "count": 1881,
      "max": [
        1.0,
        1.0,
        1.0
      ],
      "min": [
        -1.0,
        -1.0,
        -1.0
      ],
      "type": "VEC3"
    },
    {
      "bufferView": 1,
      "componentType": 5126,
      "count": 1881,
      "max": [
        0.32716429233551025,
        0.9978694319725037
      ],
      "min": [
        0.0,
        0.0
      ],
      "type": "VEC2"
    },
    {
      "bufferView": 0,
      "componentType": 5125,
      "count": 9540,
      "type": "SCALAR"
    },
    {
      "bufferView": 2,
      "byteOffset": 45144,
      "componentType": 5126,
      "count": 46633,
      "max": [
        -111.21940612792969,
        25.205570220947266,
        6.624603271484375
      ],
      "min": [
        -111.94340515136719,
        24.951065063476563,
        5.900611877441406
      ],
      "type": "VEC3"
    },
    {
      "bufferView": 2,
      "byteOffset": 604740,
      "componentType": 5126,
      "count": 46633,
      "max": [
        1.0,
        1.0,
        0.9999999403953552
      ],
      "min": [
        -1.0,
        -1.0,
        -0.9999999403953552
      ],
      "type": "VEC3"
    },
    {
      "bufferView": 1,
      "byteOffset": 15048,
      "componentType": 5126,
      "count": 46633,
      "max": [
        0.99853515625,
        0.8965921998023987
      ],
      "min": [
        0.0,
        0.0
      ],
      "type": "VEC2"
    },
    {
      "bufferView": 0,
      "byteOffset": 38160,
      "componentType": 5125,
      "count": 195882,
      "type": "SCALAR"
    },
    {
      "bufferView": 2,
      "byteOffset": 1164336,
      "componentType": 5126,
      "count": 4440,
      "max": [
        -74.05198669433594,
        23.109785079956055,
        8.9447021484375
      ],
      "min": [
        -74.13580322265625,
        0.34618711471557617,
        6.2210845947265625
      ],
      "type": "VEC3"
    },
    {
      "bufferView": 2,
      "byteOffset": 1217616,
      "componentType": 5126,
      "count": 4440,
      "max": [
        1.0,
        0.4682018458843231,
        1.0
      ],
      "min": [
        -1.0,
        -0.4682018458843231,
        -1.0
      ],
      "type": "VEC3"
    },
    {
      "bufferView": 1,
      "byteOffset": 388112,
      "componentType": 5126,
      "count": 4440,
      "max": [
        0.7479214668273926,
        0.99853515625
      ],
      "min": [
        0.0,
        0.0
      ],
      "type": "VEC2"
    },
    {
      "bufferView": 0,
      "byteOffset": 821688,
      "componentType": 5125,
      "count": 24756,
      "type": "SCALAR"
    },
    {
      "bufferView": 2,
      "byteOffset": 1270896,
      "componentType": 5126,
      "count": 11787,
      "max": [
        -73.97866821289063,
        25.98599624633789,
        9.111979484558105
      ],
      "min": [
        -74.67654418945313,
        -1.8039565086364746,
        6.134546756744385
      ],
      "type": "VEC3"
    },
    {
      "bufferView": 2,
      "byteOffset": 1412340,
      "componentType": 5126,
      "count": 11787,
      "max": [
        1.0,
        1.0,
        1.0
      ],
      "min": [
        -1.0,
        -1.0,
        -1.0
      ],
      "type": "VEC3"
    },
    {
      "bufferView": 1,
      "byteOffset": 423632,
      "componentType": 5126,
      "count": 11787,
      "max": [
        1.0,
        1.0
      ],
      "min": [
        0.0,
        0.0
      ],
      "type": "VEC2"
    },
    {
      "bufferView": 0,
      "byteOffset": 920712,
      "componentType": 5125,
      "count": 43851,
      "type": "SCALAR"
    },
    {
      "bufferView": 2,
      "byteOffset": 1553784,
      "componentType": 5126,
      "count": 65532,
      "max": [
        -73.34596252441406,
        26.516372680664063,
        6.922625541687012
      ],
      "min": [
        -74.68052673339844,
        23.560224533081055,
        5.6025872230529785
      ],
      "type": "VEC3"
    },
    {
      "bufferView": 2,
      "byteOffset": 2340168,
      "componentType": 5126,
      "count": 65532,
      "max": [
        1.0,
        1.0,
        1.0
      ],
      "min": [
        -1.0,
        -1.0,
        -1.0
      ],
      "type": "VEC3"
    },
    {
      "bufferView": 1,
      "byteOffset": 517928,
      "componentType": 5126,
      "count": 65532,
      "max": [
        0.99853515625,
        0.99853515625
      ],
      "min": [
        0.0,
        0.0
      ],
      "type": "VEC2"
    },
    {
      "bufferView": 0,
      "byteOffset": 1096116,
      "componentType": 5125,
      "count": 309402,
      "type": "SCALAR"
    },
    {
      "bufferView": 2,
      "byteOffset": 3126552,
      "componentType": 5126,
      "count": 65532,
      "max": [
        -73.20955657958984,
        26.5762939453125,
        6.922625541687012
      ],
      "min": [
        -74.68052673339844,
        23.107688903808594,
        5.6025872230529785
      ],
      "type": "VEC3"
    },
    {
      "bufferView": 2,
      "byteOffset": 3912936,
      "componentType": 5126,
      "count": 65532,
      "max": [
        1.0,
        1.0,
        1.0
      ],
      "min": [
        -1.0,
        -1.0,
        -1.0
      ],
      "type": "VEC3"
    },
    {
      "bufferView": 1,
      "byteOffset": 1042184,
      "componentType": 5126,
      "count": 65532,
      "max": [
        0.99853515625,
        0.9989400506019592
      ],
      "min": [
        0.0,
        0.0
      ],
      "type": "VEC2"
    },
    {
      "bufferView": 0,
      "byteOffset": 2333724,
      "componentType": 5125,
      "count": 281016,
      "type": "SCALAR"
    },
    {
      "bufferView": 2,
      "byteOffset": 4699320,
      "componentType": 5126,
      "count": 63257,
      "max": [
        -73.2034912109375,
        26.57274627685547,
        9.05992317199707
      ],
      "min": [
        -74.68052673339844,
        -1.8039565086364746,
        5.543924808502197
      ],
      "type": "VEC3"
    },
    {
      "bufferView": 2,
      "byteOffset": 5458404,
      "componentType": 5126,
      "count": 63257,
      "max": [
        1.0,
        1.0,
        1.0
      ],
      "min": [
        -1.0,
        -1.0,
        -1.0
      ],
      "type": "VEC3"
    },
    {
      "bufferView": 1,
      "byteOffset": 1566440,
      "componentType": 5126,
      "count": 63257,
      "max": [
        0.99853515625,
        0.99853515625
      ],
      "min": [
        0.0,
        0.0
      ],
      "type": "VEC2"
    },
    {
      "bufferView": 0,
      "byteOffset": 3457788,
      "componentType": 5125,
      "count": 256035,
      "type": "SCALAR"
    },
    {
      "bufferView": 2,
      "byteOffset": 6217488,
      "componentType": 5126,
      "count": 52,
      "max": [
        -74.67424011230469,
        24.8675537109375,
        6.377840995788574
      ],
      "min": [
        -74.67633819580078,
        24.092374801635742,
        6.1473798751831055
      ],
      "type": "VEC3"
    },
    {
      "bufferView": 2,
      "byteOffset": 6218112,
      "componentType": 5126,
      "count": 52,
      "max": [
        1.0,
        2.220446049250313e-16,
        2.220446049250313e-16
      ],
      "min": [
        -1.0,
        -2.220446049250313e-16,
        -2.220446049250313e-16
      ],
      "type": "VEC3"
    },
    {
      "bufferView": 1,
      "byteOffset": 2072496,
      "componentType": 5126,
      "count": 52,
      "max": [
        0.9901960492134094,
        0.9901960492134094
      ],
      "min": [
        0.009803921915590763,
        0.0
      ],
      "type": "VEC2"
    },
    {
      "bufferView": 0,
      "byteOffset": 4481928,
      "componentType": 5125,
      "count": 144,
      "type": "SCALAR"
    }
  ],
  "asset": {
    "extras": {
      "author": "Seeedstudio (https://sketchfab.com/Seeedstudio)",
      "license": "CC-BY-4.0 (http://creativecommons.org/licenses/by/4.0/)",
      "source": "https://sketchfab.com/3d-models/s2105-soil-ec-sensor-with-pole-7ba65177e9764ee7b5576a19da3a3b9c",
      "title": "S2105 Soil EC Sensor With Pole"
    },
    "generator": "Sketchfab-13.98.0",
    "version": "2.0"
  },
  "bufferViews": [
    {
      "buffer": 0,
      "byteLength": 4482504,
      "name": "floatBufferViews",
      "target": 34963
    },
    {
      "buffer": 0,
      "byteLength": 2072912,
      "byteOffset": 4482504,
      "byteStride": 8,
      "name": "floatBufferViews",
      "target": 34962
    },
    {
      "buffer": 0,
      "byteLength": 6218736,
      "byteOffset": 6555416,
      "byteStride": 12,
      "name": "floatBufferViews",
      "target": 34962
    }
  ],
  "buffers": [
    {
      "byteLength": 12774152,
      "uri": "scene.bin"
    }
  ],
  "materials": [
    {
      "doubleSided": true,
      "name": "ironn",
      "pbrMetallicRoughness": {
        "metallicFactor": 0.0,
        "roughnessFactor": 0.6
      }
    },
    {
      "doubleSided": true,
      "name": "outke1",
      "pbrMetallicRoughness": {
        "metallicFactor": 0.0,
        "roughnessFactor": 0.6
      }
    },
    {
      "doubleSided": true,
      "name": "black_plastic",
      "pbrMetallicRoughness": {
        "metallicFactor": 0.0,
        "roughnessFactor": 0.6
      }
    },
    {
      "doubleSided": true,
      "name": "black",
      "pbrMetallicRoughness": {
        "metallicFactor": 0.0,
        "roughnessFactor": 0.6
      }
    },
    {
      "doubleSided": true,
      "name": "white",
      "pbrMetallicRoughness": {
        "metallicFactor": 0.0,
        "roughnessFactor": 0.6
      }
    }
  ],
  "meshes": [
    {
      "name": "sensor_with_pole_ironn_0",
      "primitives": [
        {
          "attributes": {
            "NORMAL": 1,
            "POSITION": 0,
            "TEXCOORD_0": 2
          },
          "indices": 3,
          "material": 0,
          "mode": 4
        }
      ]
    },
    {
      "name": "Collar_outke1_0",
      "primitives": [
        {
          "attributes": {
            "NORMAL": 5,
            "POSITION": 4,
            "TEXCOORD_0": 6
          },
          "indices": 7,
          "material": 1,
          "mode": 4
        }
      ]
    },
    {
      "name": "S2105_black_plastic_0",
      "primitives": [
        {
          "attributes": {
            "NORMAL": 9,
            "POSITION": 8,
            "TEXCOORD_0": 10
          },
          "indices": 11,
          "material": 2,
          "mode": 4
        }
      ]
    },
    {
      "name": "S2105_black_0",
      "primitives": [
        {
          "attributes": {
            "NORMAL": 13,
            "POSITION": 12,
            "TEXCOORD_0": 14
          },
          "indices": 15,
          "material": 3,
          "mode": 4
        }
      ]
    },
    {
      "name": "S2105_outke1_0",
      "primitives": [
        {
          "attributes": {
            "NORMAL": 17,
            "POSITION": 16,
            "TEXCOORD_0": 18
          },
          "indices": 19,
          "material": 1,
          "mode": 4
        }
      ]
    },
    {
      "name": "S2105_outke1_0",
      "primitives": [
        {
          "attributes": {
            "NORMAL": 21,
            "POSITION": 20,
            "TEXCOORD_0": 22
          },
          "indices": 23,
          "material": 1,
          "mode": 4
        }
      ]
    },
    {
      "name": "S2105_outke1_0",
      "primitives": [
        {
          "attributes": {
            "NORMAL": 25,
            "POSITION": 24,
            "TEXCOORD_0": 26
          },
          "indices": 27,
          "material": 1,
          "mode": 4
        }
      ]
    },
    {
      "name": "S2105_white_0",
      "primitives": [
        {
          "attributes": {
            "NORMAL": 29,
            "POSITION": 28,
            "TEXCOORD_0": 30
          },
          "indices": 31,
          "material": 4,
          "mode": 4
        }
      ]
    }
  ],
  "nodes": [
    {
      "children": [
        1
      ],
      "matrix": [
        1.0,
        0.0,
        0.0,
        0.0,
        0.0,
        2.220446049250313e-16,
        -1.0,
        0.0,
        0.0,
        1.0,
        2.220446049250313e-16,
        0.0,
        0.0,
        0.0,
        0.0,
        1.0
      ],
      "name": "Sketchfab_model"
    },
    {
      "children": [
        2
      ],
      "matrix": [
        0.009999999776482582,
        0.0,
        0.0,
        0.0,
        0.0,
        0.0,
        0.009999999776482582,
        0.0,
        0.0,
        -0.009999999776482582,
        0.0,
        0.0,
        0.0,
        0.0,
        0.0,
        1.0
      ],
      "name": "d0a5a037671f4e1db683d469b6efcaf6.fbx"
    },
    {
      "children": [
        3
      ],
      "name": "RootNode"
    },
    {
      "children": [
        4
      ],
      "name": "test3"
    },
    {
      "children": [
        5,
        7,
        9
      ],
      "matrix": [
        1.0,
        0.0,
        0.0,
        0.0,
        0.0,
        1.0,
        0.0,
        0.0,
        0.0,
        0.0,
        1.0,
        0.0,
        32.611358642578125,
        0.0,
        0.0,
        1.0
      ],
      "name": "S2105_Soil_EC_Sensor1"
    },
    {
      "children": [
        6
      ],
      "matrix": [
        1.0,
        0.0,
        0.0,
        0.0,
        0.0,
        1.0,
        0.0,
        0.0,
        0.0,
        0.0,
        1.0,
        0.0,
        5.632607936859131,
        0.0,
        0.0,
        1.0
      ],
      "name": "sensor_with_pole"
    },
    {
      "mesh": 0,
      "name": "sensor_with_pole_ironn_0"
    },
    {
      "children": [
        8
      ],
      "matrix": [
        1.0,
        0.0,
        0.0,
        0.0,
        0.0,
        1.0,
        0.0,
        0.0,
        0.0,
        0.0,
        1.0,
        0.0,
        5.632607936859131,
        0.0,
        0.0,
        1.0
      ],
      "name": "Collar"
    },
    {
      "mesh": 1,
      "name": "Collar_outke1_0"
    },
    {
      "children": [
        10,
        11,
        12,
        13,
        14,
        15
      ],
      "matrix": [
        1.0,
        0.0,
        0.0,
        0.0,
        0.0,
        1.0,
        0.0,
        0.0,
        0.0,
        0.0,
        1.0,
        0.0,
        -32.611358642578125,
        0.0,
        0.0,
        1.0
      ],
      "name": "S2105"
    },
    {
      "mesh": 2,
      "name": "S2105_black_plastic_0"
    },
    {
      "mesh": 3,
      "name": "S2105_black_0"
    },
    {
      "mesh": 4,
      "name": "S2105_outke1_0"
    },
    {
      "mesh": 5,
      "name": "S2105_outke1_0"
    },
    {
      "mesh": 6,
      "name": "S2105_outke1_0"
    },
    {
      "mesh": 7,
      "name": "S2105_white_0"
    }
  ],
  "scene": 0,
  "scenes": [
    {
      "name": "Sketchfab_Scene",
      "nodes": [
        0
      ]
    }
  ]
}
